<?xml version="1.0" encoding="utf8" standalone="no"?>
<!DOCTYPE svg PUBLIC "-//W3C//DTD SVG 20010904//EN" "http://www.w3.org/TR/2001/REC-SVG-20010904/DTD/svg10.dtd">
<svg viewBox="0 0 60 60" xmlns="http://www.w3.org/2000/svg" xmlns:xml="http://www.w3.org/XML/1998/namespace">
<path d="m57.64014,31.87975a24.04854,24.04854 0 1,0 -48.09708,0 24.04854,24.04854 0 1,0 48.09708,0z" fill="#b3b3b3" fill-rule="evenodd" stroke="#333" stroke-width="2.94288" transform="matrix(1.061884,.000000,.000000,1.061884,-5.514281,-3.881453)"/>
<path d="m34.74689,29.92365c0-.62109.13281-1.19336.39844-1.7168 .26563-.52734.63672-.94141 1.11328-1.24219s1.02734-.45117 1.64063-.45117c.32422,0 .6582.03906 1.00195.11719 .34375.07422.63281.20313.86719.38672s.35156.43164.35156.74414c0,.25-.07422.45898-.22266.62695-.14453.16797-.32617.25195-.54492.25195-.10547,0-.20898-.01758-.31055-.05273l-.29883-.11133c-.09766-.04297-.20313-.07813-.31641-.10547s-.24805-.04102-.41602-.04102c-.30469,0-.5625.07227-.77344.2168s-.36328.33203-.46875.57422c-.10156.23828-.15234.50586-.15234.80273 0,.28906.05078.55859.15234.80859s.24805.44141.43945.58594c.19531.14453.42578.2168.69141.2168 .30078,0 .60352-.05664.9082-.16992s.48633-.16992.54492-.16992c.14063,0 .26953.04102.38672.12305s.20898.18945.27539.32227 .10547.26172.10547.39844c0,.28906-.12695.5332-.38086.73242s-.54883.34375-.89648.43359-.66211.14063-.94336.14063c-.46484,0-.89063-.08594-1.27734-.25781-.38281-.17188-.7168-.41602-1.00195-.73242s-.50195-.6875-.65039-1.10156c-.14844-.41797-.22266-.86133-.22266-1.33008zm-1.27734.62695h-3.38086c0,.25391.11719.49414.35156.7207 .23438.22266.61719.33398 1.14844.33398 .27344,0 .5-.03516.67969-.10547s.40039-.16992.66211-.29883c.26563-.13281.45703-.19922.57422-.19922 .21875,0 .4043.07617.55664.22852s.22852.34961.22852.5918c0,.28906-.14453.55273-.43359.79102-.28516.23438-.6543.41406-1.10742.53906s-.91992.19336-1.40039.19336c-.49609,0-.94531-.08594-1.34766-.25781s-.74414-.41406-1.03711-.72656c-.28906-.31641-.50977-.68359-.66211-1.10156s-.22852-.86719-.22852-1.33594c0-.44141.08008-.87109.24023-1.28906s.38672-.78516.67969-1.10156 .64258-.56445 1.04883-.74414 .8418-.27539 1.30664-.27539c.59766,0 1.12695.15039 1.58789.45117s.81641.69531 1.06641,1.18359 .38086,1.01172.38086,1.57031c0,.32031-.07227.53906-.2168.65625s-.37695.17578-.69727.17578zm-3.38086-1.30078h2.41992c0-.14844-.05273-.3125-.1582-.49219s-.25-.33594-.43359-.45703c-.17969-.125-.38477-.1875-.61523-.1875s-.43945.0625-.62695.1875c-.18359.125-.32813.27734-.43359.45703-.10156.17578-.15234.33984-.15234.49219zm-5.98828,2.98828v-4.62891c0-.27734.08594-.50781.25781-.69141 .17578-.1875.40039-.28125.67383-.28125 .22656,0 .42188.06055.58594.18164 .16797.11719.28516.25586.35156.41602 .40234-.48047.83398-.7207 1.29492-.7207 .25391,0 .47656.0918.66797.27539 .19531.17969.29297.41211.29297.69727s-.0918.50586-.27539.63867-.47852.25977-.89648.38086c-.42578.12109-.71289.27344-.86133.45703s-.22266.50391-.22266.97266v2.30273c0,.27734-.08789.51172-.26367.70313-.17188.1875-.39648.28125-.67383.28125-.27344,0-.49805-.09375-.67383-.28125-.17188-.19141-.25781-.42578-.25781-.70313z" fill="#333" transform="matrix(2.310572,.000000,.000000,2.310572,-44.05495,-38.69231)"/>
</svg>
