<?xml version="1.0" encoding="utf8" standalone="no"?>
<svg viewBox="0 0 48 48" xmlns="http://www.w3.org/2000/svg">
<defs>
<linearGradient gradientUnits="userSpaceOnUse" id="linearGradient3843" x1="21.70239" x2="21.81602" y1="8.91153" y2="35.54611">
<stop offset="0"/>
<stop offset="1" stop-color="#fff" stop-opacity=".78351"/>
</linearGradient>
<radialGradient cx="24.83713" cy="36.42113" gradientTransform="matrix(1,0,0,.53672,-3.241652e-13,16.87306)" gradientUnits="userSpaceOnUse" id="radialGradient2228" r="15.64474">
<stop offset="0"/>
<stop offset="1" stop-opacity="0"/>
</radialGradient>
<radialGradient cx="21.92919" cy="-3.21829" gradientTransform="matrix(3.65882,-3.13388e-16,1.719536e-16,2.08078,-62.4164,12.76204)" gradientUnits="userSpaceOnUse" id="radialGradient1368" r="13">
<stop offset="0" stop-color="#fff"/>
<stop offset="1" stop-color="#fff" stop-opacity="0"/>
</radialGradient>
<radialGradient cx="22.5" cy="28.11605" gradientTransform="matrix(2.36556,-4.942242e-16,5.359766e-16,2.20284,-30.72517,-34.23996)" gradientUnits="userSpaceOnUse" id="radialGradient2263" r="14.53786">
<stop offset="0" stop-color="#ef2929"/>
<stop offset="1" stop-color="#c00"/>
</radialGradient>
</defs>
<path d="m36.5,22a14,13 0 1,1 -28,0 14,13 0 1,1 28,0z" fill="url(#radialGradient2263)" fill-rule="evenodd" opacity=".15" stroke="url(#linearGradient3843)" stroke-linecap="square" stroke-linejoin="round" stroke-width="3.13662" transform="matrix(.9207,0,0,.99358,3.67948,1.64124)"/>
<path d="m40.48186,36.42113a15.64474,8.39689 0 1,1 -31.28947,0 15.64474,8.39689 0 1,1 31.28947,0z" fill="url(#radialGradient2228)" fill-rule="evenodd" opacity=".04" transform="matrix(1.15053,0,0,.56568,-4.5765,16.55285)"/>
<path d="m36.5,22a14,13 0 1,1 -28,0 14,13 0 1,1 28,0z" fill="url(#radialGradient2263)" fill-rule="evenodd" stroke="#c00" stroke-linecap="square" stroke-linejoin="round" stroke-width="1.07572" transform="matrix(.89486,0,0,.9657,3.85578,2.66035)"/>
<path d="m38,24a14,14 0 1,1 -28,0 14,14 0 1,1 28,0z" fill="none" stroke="#f77d7d" stroke-linecap="square" stroke-linejoin="round" stroke-width="1.21739" transform="matrix(.82143,0,0,.82143,4.28512,4.19146)"/>
<path d="m23.84315,11.90574c-6.27953.07959-11.40442,4.99206-11.8125,11.1875 6.11782,2.51678 13.87042-1.45122 23.142-3.38189-.68841-2.74857-4.55472-7.80561-11.17325-7.80561h-.15625z" fill="url(#radialGradient1368)" fill-rule="evenodd" opacity=".6"/>
</svg>
